<svg xmlns="http://www.w3.org/2000/svg" xmlns:xlink="http://www.w3.org/1999/xlink" version="1.1" x="0px" y="0px" viewBox="0 0 32 40" style="enable-background:new 0 0 32 32;" xml:space="preserve"><style type="text/css">
	.st0{display:none;}
	.st1{display:inline;}
</style><g><polygon points="8.351,10.944 7.795,13.112 12.817,13.112 12.998,10.959  "/><path d="M5.895,20.516C5.895,20.516,5.895,20.516,5.895,20.516c-0.007,0.025,0.002,0.044,0.011,0.056l6.286,0.008l0.288-3.438   H6.761L5.895,20.516z"/><polygon points="13.132,17.141 12.845,20.58 19.155,20.587 18.866,17.141  "/><polygon points="18.35,10.976 13.649,10.961 13.469,13.112 18.529,13.112  "/><polygon points="18.583,13.763 13.415,13.763 13.187,16.49 18.812,16.49  "/><polygon points="6.928,16.49 12.535,16.49 12.763,13.763 7.628,13.763  "/><path d="M29.296,22.056L25.38,9.563c-0.084-0.269-0.33-0.449-0.611-0.449H7.229c-0.281,0-0.527,0.181-0.611,0.448L2.703,22.056   c-0.062,0.196-0.027,0.403,0.095,0.569c0.122,0.167,0.31,0.262,0.516,0.262h25.372c0.206,0,0.394-0.095,0.516-0.262   C29.323,22.459,29.358,22.252,29.296,22.056z M26.605,20.971c-0.136,0.175-0.342,0.275-0.564,0.275H5.958   c-0.222,0-0.428-0.101-0.564-0.275s-0.183-0.398-0.129-0.613l2.394-9.522c0.08-0.318,0.365-0.541,0.693-0.541h15.296   c0.329,0,0.614,0.223,0.693,0.541l2.394,9.522C26.788,20.572,26.741,20.796,26.605,20.971z"/><polygon points="19.518,17.141 19.807,20.588 26.041,20.596 26.104,20.516 25.255,17.141  "/><polygon points="23.71,10.993 19.003,10.978 19.181,13.112 24.243,13.112  "/><polygon points="24.406,13.763 19.236,13.763 19.464,16.49 25.092,16.49  "/></g><text x="0" y="47" fill="#000000" font-size="5px" font-weight="bold" font-family="'Helvetica Neue', Helvetica, Arial-Unicode, Arial, Sans-serif">Created by Fabien</text><text x="0" y="52" fill="#000000" font-size="5px" font-weight="bold" font-family="'Helvetica Neue', Helvetica, Arial-Unicode, Arial, Sans-serif">from the Noun Project</text></svg>