<?xml version="1.0" encoding="utf-8"?>
<!-- Generator: Adobe Illustrator 21.1.0, SVG Export Plug-In . SVG Version: 6.00 Build 0)  -->
<svg
                        xmlns="http://www.w3.org/2000/svg"
                        viewBox="0 0 82.5 17.86"
                    >
                        <g>
                            <path
                                style="fill: currentColor"
                                d="m32.13,17.86c-.22-.05-.45-.08-.67-.14-1.39-.35-2.24-1.33-2.39-2.75-.03-.28-.04-.57-.04-.86,0-2.74,0-5.49,0-8.23v-.29c-.98-.12-1.96-.25-2.97-.37v.26c0,3.32,0,6.65,0,9.97,0,.35-.12.61-.4.78-.4.24-.81.47-1.24.63-1.19.45-2.43.67-3.69.77-1.03.08-2.08.11-3.11.12-.63,0-1.24-.12-1.82-.38-1-.44-1.52-1.26-1.71-2.29-.11-.6-.17-1.21-.17-1.81-.02-3.33,0-6.66,0-9.99v-.15h3.36v.24c0,3.14,0,6.29,0,9.43,0,.53.04,1.06.14,1.58.15.8.58,1.11,1.38,1.11.17,0,.34,0,.52,0,.81-.04,1.62-.13,2.39-.39.24-.08.48-.19.7-.31.2-.11.29-.28.29-.53,0-3.62,0-7.25,0-10.87v-.27h6.32V0h3.41v3.12h3.56v2.47h-3.55v.25c0,2.65,0,5.3,0,7.95,0,.1,0,.2.02.3.06.7.43.99,1.13.95.77-.05,1.5-.29,2.24-.5.07-.02.15-.04.24-.07.25.81.49,1.61.73,2.41.01.05.02.1.04.17-.44.13-.86.27-1.3.37-.65.15-1.3.27-1.95.4-.03,0-.05.02-.08.03h-1.38Z" />
                            <path
                                style="fill: currentColor"
                                d="m82.5,13.95c-.05.27-.09.53-.15.79-.31,1.32-1.17,2.12-2.42,2.56-.99.35-2.03.44-3.07.48-1.36.04-2.69-.15-3.99-.54-.12-.03-.23-.08-.34-.12.63-.65,1.25-1.29,1.86-1.93,1.06.37,2.16.41,3.26.13.99-.25,1.48-.93,1.48-1.94,0-2.08,0-4.15,0-6.23,0-1.31-.49-1.92-1.79-2.15-.77-.14-1.54-.13-2.31.05-1.07.26-1.55.88-1.56,1.98,0,2.02-.02,4.04,0,6.06.01.89-.34,1.58-.96,2.16-.85.8-1.87,1.32-2.95,1.72-1.39.52-2.83.83-4.32.83-.83,0-1.66-.08-2.47-.31-1.84-.52-2.89-1.76-3.23-3.6-.12-.62-.17-1.26-.18-1.9-.03-1.25-.01-2.49,0-3.74.01-.8.13-1.58.4-2.34.55-1.59,1.71-2.47,3.31-2.84,1.07-.25,2.16-.26,3.25-.2.98.05,1.95.2,2.9.45.03,0,.07.02.13.04-.18.75-.35,1.49-.53,2.25-.3-.06-.59-.12-.89-.16-.98-.16-1.96-.27-2.95-.11-1.22.19-1.93.89-2.13,2.11-.07.4-.11.81-.11,1.22,0,1.26,0,2.52.02,3.78,0,.33.07.67.15,1,.25,1.04.94,1.65,1.99,1.83,1.39.23,2.76.08,4.08-.39.1-.04.2-.09.29-.13.57-.26.85-.65.83-1.32-.04-2.19-.02-4.38-.01-6.57,0-.75.13-1.48.51-2.15.52-.93,1.37-1.41,2.36-1.71.95-.28,1.93-.37,2.91-.39,1.21-.02,2.41.02,3.58.34.91.25,1.73.65,2.3,1.44.4.55.59,1.19.67,1.86,0,.06.03.12.04.18v7.52Z" />
                            <path
                                style="fill: currentColor"
                                d="m8.71,13.41v-1.5c0-.38-.03-.43-.38-.57-.09-.03-.17-.07-.27-.09-1.02-.27-2.06-.41-3.12-.39-.74.02-1.21.38-1.38,1.09-.22.9-.22,1.82.03,2.72.21.73.72,1.1,1.48,1.09.67-.01,1.33-.03,2-.1.45-.04.9-.15,1.35-.25.21-.05.31-.18.3-.42-.02-.52,0-1.04,0-1.57M1.19,3.61c.74-.17,1.45-.34,2.16-.48,1.17-.23,2.36-.31,3.55-.26.73.03,1.44.13,2.13.36,1.65.54,2.6,1.69,2.9,3.38.09.49.13,1,.13,1.49.01,2.49,0,4.98.01,7.47,0,.45-.18.77-.54,1-.52.34-1.1.51-1.7.64-1.63.37-3.29.49-4.95.53-.72.02-1.45.01-2.16-.14-1.45-.3-2.32-1.16-2.57-2.61-.21-1.18-.21-2.37,0-3.55.25-1.4,1.11-2.23,2.52-2.48,1.29-.22,2.58-.1,3.84.2.68.16,1.34.39,2.02.6.05.02.11.03.23.07-.05-.94-.03-1.85-.15-2.75-.14-1.03-.85-1.6-1.91-1.73-.97-.12-1.93.01-2.89.16-.67.1-1.32.23-2.01.36-.19-.73-.39-1.46-.6-2.26" />
                            <path
                                style="fill: currentColor"
                                d="m46.05,13.4v-1.42c0-.49-.01-.51-.47-.67-.05-.02-.09-.03-.14-.05-1.03-.28-2.08-.42-3.14-.4-.76.02-1.23.4-1.41,1.14-.19.81-.19,1.63,0,2.45.2.91.71,1.32,1.64,1.3.64-.01,1.28-.03,1.91-.1.46-.05.91-.16,1.37-.27.19-.04.27-.17.26-.38-.01-.54,0-1.07,0-1.61m.04-3.6c-.04-.91-.02-1.81-.14-2.69-.15-1.06-.83-1.62-1.9-1.76-.87-.11-1.73-.02-2.59.11-.74.11-1.47.26-2.2.39-.03,0-.07,0-.1,0-.01-.03-.03-.04-.03-.06-.19-.71-.38-1.42-.57-2.17.37-.1.73-.2,1.1-.29,1.52-.36,3.06-.54,4.63-.48.92.04,1.82.19,2.67.58,1.32.61,2.06,1.67,2.33,3.07.09.48.13.98.14,1.47.01,2.55,0,5.1.01,7.64,0,.41-.16.68-.47.9-.48.34-1.03.5-1.58.64-1.25.31-2.52.45-3.81.51-.84.04-1.68.05-2.51.04-.65-.01-1.29-.15-1.89-.43-.86-.41-1.37-1.1-1.57-2-.3-1.31-.31-2.63-.05-3.94.27-1.36,1.11-2.14,2.49-2.38,1.36-.24,2.7-.08,4.03.24.67.16,1.33.38,2.06.59" />
                            <path
                                style="fill: currentColor"
                                d="m59.26,2.96c-.15.87-.3,1.71-.44,2.54-.57-.02-1.12-.06-1.66-.04-.72.02-1.42.15-2.09.45-.1.05-.2.1-.3.16-.2.12-.3.29-.3.55,0,3.53,0,7.06,0,10.59v.29h-3.36v-.27c0-3.8,0-7.6,0-11.4,0-.37.13-.65.38-.9.57-.57,1.27-.93,2-1.23,1.76-.71,3.59-.96,5.48-.78.09,0,.17.03.29.05" />
                        </g>
                    </svg>
